<svg id="Layer_1" data-name="Layer 1" xmlns="http://www.w3.org/2000/svg" viewBox="0 0 1103.53 382.87">
  <defs>
    <style>
      .cls-1 {
        fill: #603813;
      }

      .cls-2 {
        fill: #64bc46;
      }

      .cls-3 {
        fill: #40b3c2;
      }
    </style>
  </defs>
  <g>
    <path d="M297.04,162.61c-4.59,0-8.8-.79-12.62-2.38-3.83-1.59-7.14-3.78-9.95-6.59s-4.99-6.15-6.54-10.03c-1.56-3.88-2.34-8.09-2.34-12.62s.78-8.74,2.34-12.62c1.56-3.88,3.74-7.23,6.54-10.03,2.8-2.8,6.12-5,9.95-6.59,3.82-1.59,8.03-2.38,12.62-2.38s8.8.79,12.62,2.38c3.83,1.59,7.14,3.78,9.95,6.59,2.8,2.81,4.99,6.15,6.54,10.03,1.56,3.88,2.34,8.09,2.34,12.62s-.78,8.74-2.34,12.62c-1.56,3.88-3.74,7.22-6.54,10.03s-6.12,5-9.95,6.59c-3.82,1.59-8.03,2.38-12.62,2.38ZM297.04,155.98c3.51,0,6.73-.65,9.65-1.96,2.92-1.3,5.43-3.09,7.52-5.35,2.1-2.27,3.72-4.92,4.89-7.95,1.16-3.03,1.74-6.28,1.74-9.73s-.58-6.7-1.74-9.73c-1.16-3.03-2.79-5.68-4.89-7.95-2.1-2.27-4.61-4.05-7.52-5.35-2.92-1.3-6.13-1.96-9.65-1.96s-6.73.65-9.65,1.96c-2.92,1.3-5.43,3.09-7.52,5.35-2.1,2.27-3.73,4.92-4.89,7.95-1.16,3.03-1.74,6.28-1.74,9.73s.58,6.7,1.74,9.73c1.16,3.03,2.79,5.68,4.89,7.95,2.1,2.27,4.6,4.05,7.52,5.35,2.92,1.3,6.13,1.96,9.65,1.96Z"/>
    <path d="M335.46,130.73c0-1.81-.06-3.51-.17-5.1-.12-1.59-.17-3.03-.17-4.33h6.29c0,1.08.03,2.15.09,3.23.05,1.08.08,2.18.08,3.31h.17c.45-.96,1.09-1.9,1.91-2.81.82-.91,1.8-1.71,2.93-2.42,1.13-.71,2.41-1.27,3.82-1.7,1.42-.42,2.95-.64,4.59-.64,2.61,0,4.86.4,6.76,1.19,1.9.79,3.47,1.9,4.72,3.31,1.25,1.42,2.17,3.13,2.76,5.14.59,2.01.89,4.21.89,6.59v24.56h-6.63v-23.88c0-3.34-.74-5.98-2.21-7.91-1.47-1.93-3.77-2.89-6.88-2.89-2.15,0-4.01.37-5.57,1.1-1.56.74-2.83,1.79-3.82,3.15-.99,1.36-1.73,2.98-2.21,4.85-.48,1.87-.72,3.94-.72,6.21v19.38h-6.63v-30.35Z"/>
    <path d="M402.02,126.91h-11.73v19.89c0,1.3.03,2.51.08,3.61.06,1.1.28,2.07.68,2.89.4.82.99,1.47,1.79,1.96.79.48,1.93.72,3.4.72.96,0,1.96-.11,2.98-.34,1.02-.23,1.98-.57,2.89-1.02l.26,6.04c-1.13.51-2.39.88-3.78,1.1-1.39.23-2.71.34-3.95.34-2.38,0-4.28-.31-5.69-.94-1.42-.62-2.52-1.5-3.32-2.63-.79-1.13-1.32-2.54-1.57-4.21-.25-1.67-.38-3.53-.38-5.57v-21.84h-8.67v-5.61h8.67v-11.31h6.63v11.31h11.73v5.61Z"/>
    <path d="M409.67,126.4c2.04-2.1,4.46-3.64,7.27-4.63,2.8-.99,5.65-1.49,8.54-1.49,5.89,0,10.14,1.39,12.75,4.17,2.61,2.78,3.91,7,3.91,12.66v17.09c0,1.13.05,2.31.17,3.53.11,1.22.25,2.34.42,3.36h-6.38c-.23-.91-.35-1.91-.38-3.02-.03-1.1-.04-2.08-.04-2.93h-.17c-1.3,2.04-3.05,3.71-5.23,5.02s-4.8,1.96-7.86,1.96c-2.04,0-3.95-.25-5.74-.77-1.79-.51-3.34-1.26-4.67-2.25-1.33-.99-2.39-2.22-3.19-3.7-.79-1.47-1.19-3.17-1.19-5.1,0-3.29.85-5.87,2.55-7.73,1.7-1.87,3.81-3.26,6.33-4.17,2.52-.91,5.24-1.47,8.16-1.7,2.92-.23,5.6-.34,8.03-.34h2.55v-1.19c0-2.89-.86-5.07-2.59-6.55-1.73-1.47-4.15-2.21-7.27-2.21-2.15,0-4.26.35-6.33,1.06-2.07.71-3.9,1.8-5.48,3.27l-4.17-4.33ZM428.88,141.95c-4.25,0-7.62.6-10.12,1.79-2.49,1.19-3.74,3.15-3.74,5.86,0,2.49.83,4.26,2.51,5.31,1.67,1.05,3.75,1.57,6.25,1.57,1.93,0,3.61-.33,5.06-.98,1.45-.65,2.65-1.52,3.61-2.59.96-1.08,1.7-2.34,2.21-3.78.51-1.45.79-2.99.85-4.63v-2.55h-6.63Z"/>
    <path d="M452.76,130.73c0-1.81-.06-3.51-.17-5.1-.11-1.59-.17-3.03-.17-4.33h6.29c0,1.08.03,2.15.08,3.23.06,1.08.08,2.18.08,3.31h.17c.45-.96,1.09-1.9,1.91-2.81.82-.91,1.8-1.71,2.93-2.42,1.13-.71,2.41-1.27,3.83-1.7,1.42-.42,2.95-.64,4.59-.64.45,0,.91.03,1.36.08.45.06.91.17,1.36.34l-.43,6.71c-1.13-.34-2.32-.51-3.57-.51-4.08,0-7.04,1.32-8.88,3.95-1.84,2.63-2.76,6.25-2.76,10.84v19.38h-6.63v-30.35Z"/>
    <path d="M481.74,105.74c0-1.3.47-2.44,1.4-3.4.94-.96,2.08-1.45,3.44-1.45s2.51.48,3.44,1.45c.93.96,1.4,2.1,1.4,3.4,0,1.42-.45,2.58-1.36,3.48-.91.91-2.07,1.36-3.48,1.36s-2.58-.45-3.49-1.36c-.91-.91-1.36-2.07-1.36-3.48ZM483.27,121.3h6.63v39.78h-6.63v-39.78Z"/>
    <path d="M498.66,141.19c0-3.12.54-5.95,1.61-8.5,1.08-2.55,2.55-4.75,4.42-6.59,1.87-1.84,4.11-3.27,6.72-4.29,2.61-1.02,5.44-1.53,8.5-1.53s5.89.51,8.5,1.53c2.61,1.02,4.84,2.45,6.71,4.29,1.87,1.84,3.34,4.04,4.42,6.59,1.08,2.55,1.62,5.38,1.62,8.5s-.54,5.95-1.62,8.5c-1.08,2.55-2.55,4.75-4.42,6.59-1.87,1.84-4.11,3.27-6.71,4.29-2.61,1.02-5.44,1.53-8.5,1.53s-5.89-.51-8.5-1.53c-2.61-1.02-4.84-2.45-6.72-4.29-1.87-1.84-3.34-4.04-4.42-6.59-1.08-2.55-1.61-5.38-1.61-8.5ZM505.8,141.19c0,2.1.33,4.04.98,5.82.65,1.78,1.6,3.34,2.85,4.67,1.25,1.33,2.73,2.38,4.46,3.15s3.67,1.15,5.82,1.15,4.09-.38,5.82-1.15c1.73-.77,3.22-1.81,4.46-3.15,1.25-1.33,2.2-2.89,2.85-4.67.65-1.79.98-3.73.98-5.82s-.33-4.04-.98-5.82c-.65-1.79-1.6-3.34-2.85-4.68-1.25-1.33-2.73-2.38-4.46-3.15-1.73-.76-3.67-1.15-5.82-1.15s-4.09.38-5.82,1.15c-1.73.77-3.22,1.81-4.46,3.15-1.25,1.33-2.2,2.89-2.85,4.68-.65,1.78-.98,3.73-.98,5.82Z"/>
    <path d="M577.11,100.9h7.14v25.5h32.13v-25.5h7.14v60.18h-7.14v-28.05h-32.13v28.05h-7.14v-60.18Z"/>
    <path d="M669,153.85c-2.38,3.06-4.99,5.2-7.82,6.42s-6.12,1.83-9.86,1.83c-3.12,0-5.92-.55-8.41-1.66-2.49-1.1-4.61-2.59-6.33-4.46-1.73-1.87-3.06-4.08-4-6.63s-1.4-5.27-1.4-8.16c0-3.06.51-5.88,1.53-8.46,1.02-2.58,2.44-4.79,4.25-6.63,1.81-1.84,3.97-3.27,6.46-4.29,2.49-1.02,5.21-1.53,8.16-1.53,2.78,0,5.33.47,7.65,1.4s4.32,2.29,5.99,4.08c1.67,1.78,2.96,3.97,3.87,6.54.9,2.58,1.36,5.51,1.36,8.8v2.12h-32.13c.11,1.7.52,3.33,1.23,4.89.71,1.56,1.63,2.92,2.76,4.08,1.13,1.16,2.46,2.08,3.99,2.76,1.53.68,3.2,1.02,5.02,1.02,2.89,0,5.33-.51,7.31-1.53,1.98-1.02,3.77-2.52,5.35-4.5l5.02,3.91ZM663.3,137.62c-.11-3.4-1.22-6.12-3.31-8.16-2.1-2.04-4.99-3.06-8.67-3.06s-6.66,1.02-8.92,3.06c-2.27,2.04-3.63,4.76-4.08,8.16h24.99Z"/>
    <path d="M679.88,130.73c0-1.81-.06-3.51-.17-5.1-.11-1.59-.17-3.03-.17-4.33h6.29c0,1.08.03,2.15.08,3.23.06,1.08.09,2.18.09,3.31h.17c.45-.96,1.09-1.9,1.91-2.81.82-.91,1.8-1.71,2.93-2.42,1.13-.71,2.41-1.27,3.83-1.7,1.42-.42,2.95-.64,4.59-.64.45,0,.91.03,1.36.08.45.06.91.17,1.36.34l-.42,6.71c-1.13-.34-2.32-.51-3.57-.51-4.08,0-7.04,1.32-8.88,3.95-1.84,2.63-2.76,6.25-2.76,10.84v19.38h-6.63v-30.35Z"/>
    <path d="M742.35,153.85c-2.38,3.06-4.99,5.2-7.82,6.42-2.83,1.22-6.12,1.83-9.86,1.83-3.12,0-5.92-.55-8.41-1.66-2.49-1.1-4.61-2.59-6.33-4.46-1.73-1.87-3.06-4.08-4-6.63-.93-2.55-1.4-5.27-1.4-8.16,0-3.06.51-5.88,1.53-8.46,1.02-2.58,2.44-4.79,4.25-6.63,1.81-1.84,3.96-3.27,6.46-4.29,2.49-1.02,5.21-1.53,8.16-1.53,2.78,0,5.33.47,7.65,1.4,2.32.94,4.32,2.29,5.99,4.08,1.67,1.78,2.96,3.97,3.87,6.54.91,2.58,1.36,5.51,1.36,8.8v2.12h-32.13c.11,1.7.52,3.33,1.23,4.89.71,1.56,1.63,2.92,2.76,4.08,1.13,1.16,2.46,2.08,4,2.76,1.53.68,3.2,1.02,5.01,1.02,2.89,0,5.33-.51,7.31-1.53,1.98-1.02,3.77-2.52,5.36-4.5l5.02,3.91ZM736.66,137.62c-.12-3.4-1.22-6.12-3.32-8.16-2.1-2.04-4.99-3.06-8.67-3.06s-6.66,1.02-8.92,3.06c-2.27,2.04-3.63,4.76-4.08,8.16h24.99Z"/>
    <path d="M785.45,154.02h-.17c-1.25,2.27-3.21,4.18-5.91,5.74-2.69,1.56-5.82,2.34-9.39,2.34-2.78,0-5.38-.52-7.82-1.57-2.44-1.05-4.55-2.51-6.33-4.38-1.79-1.87-3.19-4.08-4.21-6.63-1.02-2.55-1.53-5.33-1.53-8.33s.51-5.78,1.53-8.33c1.02-2.55,2.44-4.76,4.25-6.63,1.81-1.87,4.01-3.33,6.59-4.38,2.58-1.05,5.43-1.57,8.54-1.57,2.89,0,5.54.59,7.95,1.78s4.52,2.86,6.33,5.02h.17v-30.26h6.63v64.26h-6.63v-7.06ZM785.45,141.19c0-2.1-.33-4.04-.98-5.82-.65-1.79-1.6-3.34-2.85-4.68-1.25-1.33-2.73-2.38-4.46-3.15-1.73-.76-3.67-1.15-5.82-1.15s-4.09.38-5.82,1.15c-1.73.77-3.22,1.81-4.46,3.15-1.25,1.33-2.2,2.89-2.85,4.68-.65,1.78-.98,3.73-.98,5.82s.32,4.04.98,5.82c.65,1.78,1.6,3.34,2.85,4.67,1.25,1.33,2.73,2.38,4.46,3.15s3.67,1.15,5.82,1.15,4.09-.38,5.82-1.15,3.22-1.81,4.46-3.15c1.25-1.33,2.2-2.89,2.85-4.67.65-1.79.98-3.73.98-5.82Z"/>
    <path d="M802.62,105.74c0-1.3.47-2.44,1.4-3.4.93-.96,2.08-1.45,3.44-1.45s2.51.48,3.44,1.45c.93.96,1.4,2.1,1.4,3.4,0,1.42-.46,2.58-1.36,3.48-.91.91-2.07,1.36-3.48,1.36s-2.58-.45-3.48-1.36c-.91-.91-1.36-2.07-1.36-3.48ZM804.14,121.3h6.63v39.78h-6.63v-39.78Z"/>
    <path d="M845.28,126.91h-11.73v19.89c0,1.3.03,2.51.08,3.61s.28,2.07.68,2.89c.4.82.99,1.47,1.79,1.96.79.48,1.93.72,3.4.72.96,0,1.96-.11,2.97-.34,1.02-.23,1.98-.57,2.89-1.02l.25,6.04c-1.13.51-2.39.88-3.78,1.1-1.39.23-2.71.34-3.95.34-2.38,0-4.28-.31-5.7-.94s-2.52-1.5-3.31-2.63c-.79-1.13-1.32-2.54-1.57-4.21-.26-1.67-.38-3.53-.38-5.57v-21.84h-8.67v-5.61h8.67v-11.31h6.63v11.31h11.73v5.61Z"/>
    <path d="M853.36,126.4c2.04-2.1,4.46-3.64,7.27-4.63,2.8-.99,5.65-1.49,8.54-1.49,5.89,0,10.14,1.39,12.75,4.17,2.61,2.78,3.91,7,3.91,12.66v17.09c0,1.13.05,2.31.17,3.53.11,1.22.25,2.34.42,3.36h-6.38c-.23-.91-.35-1.91-.38-3.02-.03-1.1-.04-2.08-.04-2.93h-.17c-1.3,2.04-3.05,3.71-5.23,5.02s-4.8,1.96-7.86,1.96c-2.04,0-3.95-.25-5.74-.77-1.79-.51-3.34-1.26-4.68-2.25-1.33-.99-2.39-2.22-3.19-3.7-.79-1.47-1.19-3.17-1.19-5.1,0-3.29.85-5.87,2.55-7.73,1.7-1.87,3.81-3.26,6.33-4.17,2.52-.91,5.24-1.47,8.16-1.7,2.92-.23,5.6-.34,8.03-.34h2.55v-1.19c0-2.89-.86-5.07-2.59-6.55-1.73-1.47-4.15-2.21-7.27-2.21-2.15,0-4.27.35-6.33,1.06-2.07.71-3.9,1.8-5.48,3.27l-4.17-4.33ZM872.57,141.95c-4.25,0-7.62.6-10.12,1.79-2.49,1.19-3.74,3.15-3.74,5.86,0,2.49.84,4.26,2.51,5.31,1.67,1.05,3.75,1.57,6.25,1.57,1.93,0,3.61-.33,5.06-.98,1.45-.65,2.65-1.52,3.61-2.59.96-1.08,1.7-2.34,2.21-3.78.51-1.45.79-2.99.85-4.63v-2.55h-6.63Z"/>
    <path d="M896.71,130.73c0-1.81-.06-3.51-.17-5.1-.12-1.59-.17-3.03-.17-4.33h6.29c0,1.08.03,2.15.09,3.23.05,1.08.08,2.18.08,3.31h.17c.45-.96,1.09-1.9,1.91-2.81.82-.91,1.8-1.71,2.93-2.42,1.13-.71,2.41-1.27,3.82-1.7,1.42-.42,2.95-.64,4.59-.64.45,0,.91.03,1.36.08.45.06.9.17,1.36.34l-.43,6.71c-1.13-.34-2.32-.51-3.57-.51-4.08,0-7.04,1.32-8.88,3.95-1.84,2.63-2.76,6.25-2.76,10.84v19.38h-6.63v-30.35Z"/>
    <path d="M943.8,170.17c-.68,1.7-1.38,3.24-2.08,4.63-.71,1.39-1.56,2.58-2.55,3.57-.99.99-2.18,1.76-3.57,2.29-1.39.54-3.07.81-5.06.81-.96,0-1.97-.06-3.02-.17-1.05-.11-2.03-.4-2.93-.85l.85-5.78c.68.28,1.39.47,2.12.55.74.08,1.59.13,2.55.13,2.15,0,3.74-.59,4.76-1.78,1.02-1.19,1.9-2.78,2.63-4.76l2.72-7.48-16.49-40.03h7.74l12.32,31.19h.17l11.81-31.19h7.23l-19.21,48.88Z"/>
    <path d="M311.24,207.31c-1.81-2.44-4.05-4.26-6.72-5.48-2.66-1.22-5.44-1.83-8.33-1.83-3.34,0-6.42.68-9.22,2.04s-5.23,3.19-7.27,5.48-3.63,4.96-4.76,7.99c-1.13,3.03-1.7,6.19-1.7,9.48,0,3.51.57,6.79,1.7,9.82,1.13,3.03,2.71,5.67,4.72,7.9,2.01,2.24,4.42,4.01,7.22,5.31,2.8,1.3,5.91,1.96,9.31,1.96,3.68,0,6.97-.72,9.86-2.17s5.41-3.53,7.56-6.25l5.36,4.51c-2.72,3.63-5.99,6.29-9.82,7.99-3.82,1.7-8.15,2.55-12.96,2.55-4.31,0-8.33-.79-12.07-2.38-3.74-1.59-6.98-3.78-9.73-6.59-2.75-2.81-4.9-6.13-6.46-9.99-1.56-3.85-2.34-8.08-2.34-12.67s.75-8.56,2.25-12.41c1.5-3.85,3.61-7.2,6.33-10.03,2.72-2.83,5.95-5.07,9.69-6.72,3.74-1.64,7.85-2.46,12.33-2.46,4.08,0,8,.74,11.77,2.21,3.77,1.47,6.93,3.88,9.48,7.23l-6.21,4.5Z"/>
    <path d="M326.79,220.4c2.04-2.1,4.46-3.64,7.27-4.63,2.81-.99,5.65-1.49,8.54-1.49,5.89,0,10.14,1.39,12.75,4.17,2.61,2.78,3.91,7,3.91,12.66v17.09c0,1.13.06,2.31.17,3.53.11,1.22.25,2.34.43,3.36h-6.38c-.23-.91-.36-1.91-.38-3.02-.03-1.1-.04-2.08-.04-2.93h-.17c-1.3,2.04-3.05,3.71-5.23,5.02-2.18,1.3-4.8,1.96-7.86,1.96-2.04,0-3.95-.25-5.74-.77-1.78-.51-3.34-1.26-4.67-2.25-1.33-.99-2.39-2.22-3.19-3.7-.79-1.47-1.19-3.17-1.19-5.1,0-3.29.85-5.87,2.55-7.73,1.7-1.87,3.81-3.26,6.33-4.17,2.52-.91,5.24-1.47,8.16-1.7,2.92-.23,5.6-.34,8.03-.34h2.55v-1.19c0-2.89-.86-5.07-2.59-6.55-1.73-1.47-4.15-2.21-7.27-2.21-2.15,0-4.26.35-6.33,1.06-2.07.71-3.9,1.8-5.48,3.27l-4.17-4.33ZM346,235.95c-4.25,0-7.62.6-10.12,1.79-2.49,1.19-3.74,3.15-3.74,5.86,0,2.49.84,4.26,2.51,5.31,1.67,1.05,3.75,1.57,6.25,1.57,1.93,0,3.61-.33,5.06-.98,1.45-.65,2.65-1.52,3.61-2.59.96-1.08,1.7-2.34,2.21-3.78.51-1.45.79-2.99.85-4.63v-2.55h-6.63Z"/>
    <path d="M371.84,224.73c0-1.81-.06-3.51-.17-5.1-.12-1.59-.17-3.03-.17-4.33h6.29c0,1.08.03,2.15.09,3.23.05,1.08.08,2.18.08,3.31h.17c.45-.96,1.09-1.9,1.91-2.81.82-.91,1.8-1.71,2.93-2.42,1.13-.71,2.41-1.27,3.82-1.7,1.42-.42,2.95-.64,4.59-.64,2.61,0,4.86.4,6.76,1.19,1.9.79,3.47,1.9,4.72,3.31,1.25,1.42,2.17,3.13,2.76,5.14.59,2.01.89,4.21.89,6.59v24.56h-6.63v-23.88c0-3.34-.74-5.98-2.21-7.91-1.47-1.93-3.77-2.89-6.88-2.89-2.15,0-4.01.37-5.57,1.1-1.56.74-2.83,1.79-3.82,3.15-.99,1.36-1.73,2.98-2.21,4.85-.48,1.87-.72,3.94-.72,6.21v19.38h-6.63v-30.35Z"/>
    <path d="M444.43,225.24c-1.42-1.7-2.95-2.93-4.59-3.7-1.64-.76-3.46-1.15-5.44-1.15-2.21,0-4.16.38-5.86,1.15-1.7.77-3.1,1.83-4.21,3.19-1.1,1.36-1.94,2.93-2.51,4.72s-.85,3.7-.85,5.74.33,3.95.98,5.74c.65,1.78,1.56,3.36,2.72,4.72,1.16,1.36,2.56,2.42,4.21,3.19s3.49,1.15,5.52,1.15c4.36,0,7.74-1.64,10.12-4.93l4.93,4.67c-1.93,2.21-4.19,3.83-6.8,4.85-2.61,1.02-5.36,1.53-8.25,1.53-3.06,0-5.86-.51-8.41-1.53-2.55-1.02-4.72-2.47-6.5-4.34-1.79-1.87-3.17-4.08-4.17-6.63-.99-2.55-1.49-5.35-1.49-8.42s.5-5.78,1.49-8.33c.99-2.55,2.39-4.76,4.21-6.63s3.98-3.33,6.5-4.38c2.52-1.05,5.31-1.57,8.37-1.57s5.74.51,8.37,1.53,4.94,2.61,6.93,4.76l-5.27,4.67Z"/>
    <path d="M490.93,247.85c-2.38,3.06-4.99,5.2-7.82,6.42s-6.12,1.83-9.86,1.83c-3.12,0-5.92-.55-8.42-1.66-2.49-1.1-4.6-2.59-6.33-4.46s-3.06-4.08-3.99-6.63c-.94-2.55-1.4-5.27-1.4-8.16,0-3.06.51-5.88,1.53-8.46,1.02-2.58,2.44-4.79,4.25-6.63,1.81-1.84,3.97-3.27,6.46-4.29,2.49-1.02,5.21-1.53,8.16-1.53,2.78,0,5.33.47,7.65,1.4,2.32.94,4.32,2.29,5.99,4.08,1.67,1.78,2.96,3.97,3.87,6.54.91,2.58,1.36,5.51,1.36,8.8v2.12h-32.13c.11,1.7.52,3.33,1.23,4.89.71,1.56,1.63,2.92,2.76,4.08,1.13,1.16,2.46,2.08,3.99,2.76,1.53.68,3.2,1.02,5.02,1.02,2.89,0,5.33-.51,7.31-1.53,1.98-1.02,3.77-2.52,5.35-4.5l5.01,3.91ZM485.23,231.62c-.11-3.4-1.22-6.12-3.31-8.16-2.1-2.04-4.99-3.06-8.67-3.06s-6.66,1.02-8.93,3.06-3.63,4.76-4.08,8.16h24.99Z"/>
    <path d="M503.08,224.73c0-1.81-.06-3.51-.17-5.1-.11-1.59-.17-3.03-.17-4.33h6.29c0,1.08.03,2.15.08,3.23.06,1.08.09,2.18.09,3.31h.17c.45-.96,1.09-1.9,1.91-2.81.82-.91,1.8-1.71,2.93-2.42,1.13-.71,2.41-1.27,3.83-1.7,1.42-.42,2.95-.64,4.59-.64.45,0,.91.03,1.36.08.45.06.91.17,1.36.34l-.42,6.71c-1.13-.34-2.32-.51-3.57-.51-4.08,0-7.04,1.32-8.88,3.95-1.84,2.63-2.76,6.25-2.76,10.84v19.38h-6.63v-30.35Z"/>
    <path d="M558.67,194.9h15.38c2.89,0,5.77.17,8.63.51s5.43,1.08,7.69,2.21c2.27,1.13,4.11,2.79,5.52,4.97,1.42,2.18,2.12,5.14,2.12,8.88,0,4.42-1.33,7.99-4,10.71-2.66,2.72-6.35,4.45-11.05,5.19l17.08,27.71h-8.75l-16.32-27.03h-9.18v27.03h-7.14v-60.18ZM565.81,221.42h6.38c1.98,0,4.04-.06,6.16-.17,2.12-.11,4.08-.48,5.86-1.1,1.79-.62,3.26-1.6,4.42-2.93,1.16-1.33,1.74-3.24,1.74-5.74,0-2.15-.43-3.88-1.28-5.19-.85-1.3-1.97-2.31-3.36-3.02-1.39-.71-2.95-1.18-4.68-1.4-1.73-.23-3.47-.34-5.23-.34h-10.03v19.89Z"/>
    <path d="M643.67,247.85c-2.38,3.06-4.99,5.2-7.82,6.42-2.83,1.22-6.12,1.83-9.86,1.83-3.12,0-5.92-.55-8.42-1.66-2.49-1.1-4.6-2.59-6.33-4.46-1.73-1.87-3.06-4.08-4-6.63-.93-2.55-1.4-5.27-1.4-8.16,0-3.06.51-5.88,1.53-8.46,1.02-2.58,2.44-4.79,4.25-6.63,1.81-1.84,3.97-3.27,6.46-4.29,2.49-1.02,5.21-1.53,8.16-1.53,2.78,0,5.33.47,7.65,1.4,2.32.94,4.32,2.29,5.99,4.08,1.67,1.78,2.96,3.97,3.87,6.54.91,2.58,1.36,5.51,1.36,8.8v2.12h-32.13c.11,1.7.52,3.33,1.23,4.89.71,1.56,1.63,2.92,2.76,4.08,1.13,1.16,2.47,2.08,4,2.76,1.53.68,3.2,1.02,5.01,1.02,2.89,0,5.33-.51,7.31-1.53,1.98-1.02,3.77-2.52,5.36-4.5l5.01,3.91ZM637.97,231.62c-.12-3.4-1.22-6.12-3.32-8.16-2.1-2.04-4.99-3.06-8.67-3.06s-6.66,1.02-8.92,3.06c-2.27,2.04-3.63,4.76-4.08,8.16h24.99Z"/>
    <path d="M656.67,244.62c1.3,1.64,2.73,2.95,4.29,3.91,1.56.96,3.53,1.44,5.91,1.44,1.02,0,2.05-.11,3.1-.34,1.05-.23,2-.6,2.85-1.1.85-.51,1.53-1.15,2.04-1.91s.77-1.69.77-2.76-.24-1.95-.72-2.63c-.48-.68-1.12-1.26-1.91-1.74-.79-.48-1.7-.86-2.72-1.15-1.02-.28-2.07-.54-3.14-.76-1.87-.4-3.65-.85-5.36-1.36-1.7-.51-3.19-1.18-4.46-2-1.27-.82-2.29-1.88-3.06-3.19-.77-1.3-1.15-2.97-1.15-5.01,0-1.93.43-3.63,1.28-5.1.85-1.47,1.98-2.69,3.4-3.66,1.42-.96,3-1.7,4.76-2.21,1.76-.51,3.57-.76,5.44-.76,2.83,0,5.45.57,7.86,1.7,2.41,1.13,4.29,2.98,5.65,5.52l-5.53,3.66c-.85-1.42-1.97-2.56-3.36-3.44-1.39-.88-3.07-1.32-5.06-1.32-.91,0-1.83.11-2.76.34-.94.23-1.77.57-2.51,1.02-.74.45-1.35,1.03-1.83,1.74-.48.71-.72,1.52-.72,2.42,0,.85.27,1.57.81,2.17.54.59,1.28,1.12,2.21,1.57.93.45,2.01.85,3.23,1.19,1.22.34,2.48.62,3.78.85,1.76.34,3.43.78,5.02,1.32,1.59.54,2.97,1.26,4.16,2.17,1.19.91,2.12,2.04,2.8,3.4.68,1.36,1.02,3.03,1.02,5.02,0,2.27-.46,4.19-1.36,5.78-.91,1.59-2.11,2.88-3.61,3.87-1.5.99-3.2,1.71-5.1,2.17-1.9.45-3.84.68-5.82.68-3.4,0-6.33-.52-8.8-1.57-2.46-1.05-4.69-2.99-6.67-5.82l5.27-4.08Z"/>
    <path d="M727.99,247.85c-2.38,3.06-4.99,5.2-7.82,6.42s-6.12,1.83-9.86,1.83c-3.12,0-5.92-.55-8.42-1.66s-4.6-2.59-6.33-4.46-3.06-4.08-3.99-6.63c-.94-2.55-1.4-5.27-1.4-8.16,0-3.06.51-5.88,1.53-8.46,1.02-2.58,2.44-4.79,4.25-6.63,1.81-1.84,3.97-3.27,6.46-4.29,2.49-1.02,5.21-1.53,8.16-1.53,2.78,0,5.33.47,7.65,1.4s4.32,2.29,5.99,4.08c1.67,1.78,2.96,3.97,3.87,6.54.9,2.58,1.36,5.51,1.36,8.8v2.12h-32.13c.11,1.7.52,3.33,1.23,4.89.71,1.56,1.63,2.92,2.76,4.08,1.13,1.16,2.46,2.08,3.99,2.76,1.53.68,3.2,1.02,5.02,1.02,2.89,0,5.33-.51,7.31-1.53,1.98-1.02,3.77-2.52,5.35-4.5l5.02,3.91ZM722.29,231.62c-.11-3.4-1.22-6.12-3.31-8.16-2.1-2.04-4.99-3.06-8.67-3.06s-6.66,1.02-8.93,3.06-3.63,4.76-4.08,8.16h24.99Z"/>
    <path d="M737.93,220.4c2.04-2.1,4.46-3.64,7.27-4.63,2.8-.99,5.65-1.49,8.54-1.49,5.89,0,10.14,1.39,12.75,4.17,2.61,2.78,3.91,7,3.91,12.66v17.09c0,1.13.05,2.31.17,3.53.11,1.22.25,2.34.42,3.36h-6.38c-.23-.91-.35-1.91-.38-3.02-.03-1.1-.04-2.08-.04-2.93h-.17c-1.3,2.04-3.05,3.71-5.23,5.02s-4.8,1.96-7.86,1.96c-2.04,0-3.95-.25-5.74-.77-1.79-.51-3.34-1.26-4.68-2.25-1.33-.99-2.39-2.22-3.19-3.7-.79-1.47-1.19-3.17-1.19-5.1,0-3.29.85-5.87,2.55-7.73,1.7-1.87,3.81-3.26,6.33-4.17,2.52-.91,5.24-1.47,8.16-1.7,2.92-.23,5.6-.34,8.03-.34h2.55v-1.19c0-2.89-.86-5.07-2.59-6.55-1.73-1.47-4.15-2.21-7.27-2.21-2.15,0-4.27.35-6.33,1.06-2.07.71-3.9,1.8-5.48,3.27l-4.17-4.33ZM757.14,235.95c-4.25,0-7.62.6-10.12,1.79-2.49,1.19-3.74,3.15-3.74,5.86,0,2.49.84,4.26,2.51,5.31,1.67,1.05,3.75,1.57,6.25,1.57,1.93,0,3.61-.33,5.06-.98,1.45-.65,2.65-1.52,3.61-2.59.96-1.08,1.7-2.34,2.21-3.78.51-1.45.79-2.99.85-4.63v-2.55h-6.63Z"/>
    <path d="M782.98,224.73c0-1.81-.06-3.51-.17-5.1-.12-1.59-.17-3.03-.17-4.33h6.29c0,1.08.03,2.15.09,3.23.05,1.08.08,2.18.08,3.31h.17c.45-.96,1.09-1.9,1.91-2.81.82-.91,1.8-1.71,2.93-2.42,1.13-.71,2.41-1.27,3.82-1.7,1.42-.42,2.95-.64,4.59-.64.45,0,.91.03,1.36.08.45.06.9.17,1.36.34l-.43,6.71c-1.13-.34-2.32-.51-3.57-.51-4.08,0-7.04,1.32-8.88,3.95-1.84,2.63-2.76,6.25-2.76,10.84v19.38h-6.63v-30.35Z"/>
    <path d="M839.51,225.24c-1.42-1.7-2.95-2.93-4.59-3.7-1.64-.76-3.46-1.15-5.44-1.15-2.21,0-4.17.38-5.87,1.15-1.7.77-3.1,1.83-4.21,3.19-1.1,1.36-1.94,2.93-2.51,4.72-.57,1.79-.85,3.7-.85,5.74s.33,3.95.98,5.74c.65,1.78,1.56,3.36,2.72,4.72s2.56,2.42,4.21,3.19c1.64.77,3.48,1.15,5.53,1.15,4.36,0,7.73-1.64,10.11-4.93l4.93,4.67c-1.93,2.21-4.2,3.83-6.8,4.85-2.61,1.02-5.36,1.53-8.24,1.53-3.06,0-5.87-.51-8.42-1.53-2.55-1.02-4.72-2.47-6.5-4.34-1.79-1.87-3.17-4.08-4.17-6.63-.99-2.55-1.49-5.35-1.49-8.42s.49-5.78,1.49-8.33c.99-2.55,2.39-4.76,4.21-6.63,1.81-1.87,3.98-3.33,6.5-4.38,2.52-1.05,5.31-1.57,8.37-1.57s5.74.51,8.37,1.53,4.94,2.61,6.93,4.76l-5.27,4.67Z"/>
    <path d="M851.75,190.82h6.63v30h.17c.45-.79,1.08-1.57,1.87-2.34.79-.77,1.74-1.46,2.85-2.08,1.1-.62,2.34-1.13,3.7-1.53,1.36-.4,2.8-.59,4.33-.59,2.61,0,4.86.4,6.76,1.19,1.9.79,3.47,1.9,4.72,3.31,1.24,1.42,2.17,3.13,2.76,5.14.6,2.01.89,4.21.89,6.59v24.56h-6.63v-23.88c0-3.34-.74-5.98-2.21-7.91-1.47-1.93-3.77-2.89-6.88-2.89-2.15,0-4.01.37-5.57,1.1-1.56.74-2.83,1.79-3.82,3.15-.99,1.36-1.73,2.98-2.21,4.85-.48,1.87-.72,3.94-.72,6.21v19.38h-6.63v-64.26Z"/>
    <path d="M269.08,288.9h9.01l34.85,49.98h.17v-49.98h7.14v60.18h-9.01l-34.85-49.98h-.17v49.98h-7.14v-60.18Z"/>
    <path d="M365.72,341.85c-2.38,3.06-4.99,5.2-7.82,6.42-2.83,1.22-6.12,1.83-9.86,1.83-3.12,0-5.92-.55-8.42-1.66-2.49-1.1-4.6-2.59-6.33-4.46-1.73-1.87-3.06-4.08-4-6.63-.93-2.55-1.4-5.27-1.4-8.16,0-3.06.51-5.88,1.53-8.46,1.02-2.58,2.44-4.79,4.25-6.63,1.81-1.84,3.97-3.27,6.46-4.29,2.49-1.02,5.21-1.53,8.16-1.53,2.78,0,5.33.47,7.65,1.4,2.32.94,4.32,2.29,5.99,4.08,1.67,1.78,2.96,3.97,3.87,6.54.91,2.58,1.36,5.51,1.36,8.8v2.12h-32.13c.11,1.7.52,3.33,1.23,4.89.71,1.56,1.63,2.92,2.76,4.08,1.13,1.16,2.47,2.08,4,2.76,1.53.68,3.2,1.02,5.01,1.02,2.89,0,5.33-.51,7.31-1.53,1.98-1.02,3.77-2.52,5.36-4.5l5.01,3.91ZM360.03,325.62c-.12-3.4-1.22-6.12-3.32-8.16-2.1-2.04-4.99-3.06-8.67-3.06s-6.66,1.02-8.92,3.06c-2.27,2.04-3.63,4.76-4.08,8.16h24.99Z"/>
    <path d="M399.64,314.91h-11.73v19.89c0,1.3.03,2.51.09,3.61.06,1.1.28,2.07.68,2.89.4.82.99,1.47,1.79,1.96.79.48,1.93.72,3.4.72.96,0,1.96-.11,2.97-.34,1.02-.23,1.98-.57,2.89-1.02l.25,6.04c-1.13.51-2.39.88-3.78,1.1-1.39.23-2.71.34-3.95.34-2.38,0-4.28-.31-5.7-.94-1.42-.62-2.52-1.5-3.31-2.63-.79-1.13-1.32-2.54-1.57-4.21-.25-1.67-.38-3.53-.38-5.57v-21.84h-8.67v-5.61h8.67v-11.31h6.63v11.31h11.73v5.61Z"/>
    <path d="M453.02,349.08h-6.54l-11.3-30.6h-.17l-10.03,30.6h-6.8l-12.92-39.78h7.31l9.09,30.6h.17l10.29-30.6h6.97l10.46,30.6h.17l9.01-30.6h7.14l-12.83,39.78Z"/>
    <path d="M469.34,329.19c0-3.12.54-5.95,1.62-8.5,1.08-2.55,2.55-4.75,4.42-6.59,1.87-1.84,4.11-3.27,6.71-4.29,2.61-1.02,5.44-1.53,8.5-1.53s5.89.51,8.5,1.53c2.61,1.02,4.84,2.45,6.71,4.29,1.87,1.84,3.34,4.04,4.42,6.59,1.08,2.55,1.62,5.38,1.62,8.5s-.54,5.95-1.62,8.5c-1.08,2.55-2.55,4.75-4.42,6.59-1.87,1.84-4.11,3.27-6.71,4.29-2.61,1.02-5.44,1.53-8.5,1.53s-5.89-.51-8.5-1.53c-2.61-1.02-4.85-2.45-6.71-4.29-1.87-1.84-3.34-4.04-4.42-6.59-1.08-2.55-1.62-5.38-1.62-8.5ZM476.48,329.19c0,2.1.33,4.04.98,5.82.65,1.78,1.6,3.34,2.85,4.67,1.25,1.33,2.73,2.38,4.46,3.15,1.73.77,3.67,1.15,5.82,1.15s4.09-.38,5.82-1.15,3.21-1.81,4.46-3.15c1.25-1.33,2.2-2.89,2.85-4.67.65-1.79.98-3.73.98-5.82s-.33-4.04-.98-5.82c-.65-1.79-1.6-3.34-2.85-4.68-1.25-1.33-2.73-2.38-4.46-3.15-1.73-.76-3.67-1.15-5.82-1.15s-4.09.38-5.82,1.15c-1.73.77-3.22,1.81-4.46,3.15-1.25,1.33-2.2,2.89-2.85,4.68-.65,1.78-.98,3.73-.98,5.82Z"/>
    <path d="M520.42,318.73c0-1.81-.06-3.51-.17-5.1-.11-1.59-.17-3.03-.17-4.33h6.29c0,1.08.03,2.15.08,3.23.06,1.08.09,2.18.09,3.31h.17c.45-.96,1.09-1.9,1.91-2.81.82-.91,1.8-1.71,2.93-2.42,1.13-.71,2.41-1.27,3.83-1.7,1.42-.42,2.95-.64,4.59-.64.45,0,.91.03,1.36.08.45.06.91.17,1.36.34l-.42,6.71c-1.13-.34-2.32-.51-3.57-.51-4.08,0-7.04,1.32-8.88,3.95-1.84,2.63-2.76,6.25-2.76,10.84v19.38h-6.63v-30.35Z"/>
    <path d="M548.64,284.82h6.63v41.99l18.1-17.51h9.43l-19.21,18.1,21.16,21.67h-9.77l-19.72-20.91v20.91h-6.63v-64.26Z"/>
  </g>
  <g>
    <path class="cls-2" d="M79.87,188.31c-3.79,4.16-8.28,5.62-12.35,8.07,1.14-4.71,1.22-9.55,4.03-14.47,3.13-5.48,9.24-6.76,11.45-7.05-1.63,1.34-4.57,3.88-6.31,6.01-4.78,5.86-5.56,9.95-5.56,9.95,0,0,1.44-3.73,6.26-9.51,1.72-2.06,4.39-4.63,5.84-6.14.35,2.39.77,8.59-3.35,13.12Z"/>
    <path class="cls-2" d="M62.07,175.21c-7.55-1.02-12.64-5.18-18.51-7.98,6.12-2.62,11.57-6.61,19.2-7.4,8.51-.88,14.65,5.36,16.67,7.77-2.75-.82-7.84-2.2-11.56-2.49-10.21-.78-15.36,1.75-15.36,1.75,0,0,5.26-1.43,15.41-.53,3.62.32,8.54,1.36,11.33,1.81-2.39,2.45-8.96,8.19-17.18,7.08Z"/>
    <path class="cls-2" d="M173.13,74.25c.9-6.73-1.22-12.11-2.11-17.83-3.44,4.6-7.81,8.3-10.15,14.65-2.61,7.08.92,13.87,2.35,16.2-.02-2.56.03-7.26.65-10.52,1.68-8.94,4.83-12.74,4.83-12.74,0,0-2.31,4.16-3.89,13.08-.56,3.18-.86,7.65-1.13,10.16,2.46-1.45,8.46-5.67,9.44-12.99Z"/>
    <path class="cls-2" d="M132.97,40.88c-3.25-6.79-8.46-10.49-12.74-15.26-.39,6.36-2.18,12.46-.5,19.78,1.88,8.16,9.25,12.32,11.99,13.6-1.57-2.36-4.36-6.76-5.77-10.16-3.86-9.33-3.25-14.77-3.25-14.77,0,0,.39,5.27,4.33,14.51,1.4,3.29,3.84,7.63,5.11,10.11,1.4-2.84,4.38-10.42.84-17.81Z"/>
    <path class="cls-2" d="M188.01,99.46c8.07-1.57,13.35-6.33,19.53-9.7-6.7-2.43-12.76-6.37-21.01-6.74-9.19-.42-15.49,6.66-17.56,9.36,2.92-1.05,8.32-2.85,12.31-3.38,10.94-1.48,16.61.92,16.61.92,0,0-5.73-1.2-16.6.39-3.87.57-9.12,1.98-12.1,2.64,2.69,2.48,10.03,8.22,18.82,6.52Z"/>
    <path class="cls-2" d="M157.11,55.4c4.08-7.79,3.74-15.5,5.13-22.99-6.39,3.87-13.56,6.15-19.32,12.74-6.42,7.34-4.91,17.51-4.1,21.11,1.09-3.15,3.22-8.9,5.43-12.59,6.06-10.11,11.73-13.15,11.73-13.15,0,0-4.76,3.92-10.68,14.06-2.11,3.61-4.44,8.96-5.88,11.89,3.77-.5,13.24-2.59,17.69-11.07Z"/>
    <path class="cls-2" d="M104.65,80c-12.62-3.85-20.57-12.16-30.06-18.47,10.77-2.58,20.64-7.62,33.69-6.74,14.55.97,23.94,13.04,26.98,17.6-4.53-2.13-12.91-5.87-19.17-7.41-17.15-4.21-26.28-1.5-26.28-1.5,0,0,9.14-.85,26.18,3.53,6.07,1.56,14.24,4.68,18.89,6.23-4.43,3.36-16.47,10.97-30.21,6.78Z"/>
    <path class="cls-2" d="M96.04,144.2c-.9-9.54-5.65-16.05-8.75-23.51-3.4,7.65-8.4,14.43-9.68,24.03-1.42,10.7,5.79,18.58,8.57,21.19-.86-3.48-2.3-9.92-2.48-14.62-.5-12.88,2.75-19.32,2.75-19.32,0,0-1.93,6.6-1.3,19.41.23,4.56,1.25,10.79,1.68,14.32,3.03-2.95,10.18-11.1,9.2-21.49Z"/>
    <g>
      <path class="cls-2" d="M128.15,300.16c.03-18.95,6.33-38.83,13.38-56.39,6.89,3.57,14.02,5.36,18.64,7.34-6.7,13.83-13.3,27.73-17.07,42.71l-1.21,5.32s-3.12,12.14-.21,27.31l1.01,4.58c1.84,7.42,4.73,15.01,8.42,23.36-18.36-22.18-22.96-43.83-22.94-54.22Z"/>
      <path class="cls-3" d="M92.8,185.68c6.88,18.22,15,29.46,26.96,40.33,20.81,18.9,50.06,19.88,72.67,35.45,11.07,7.62,16.35,17.48,21.44,31.78-1.41-20.09-9.35-33.06-14.25-38.17-10.26-10.69-24.25-17.54-37.64-23.05-12.88-5.3-51.08-14.98-69.18-46.34Z"/>
    </g>
    <path class="cls-1" d="M154.31,121.42c2.68,14.75,3.72,28.93,3.69,44.05-.05,20.98-1.77,37.38-10.52,56.92-.01.04-.03.09-.05.13-8.79-3.31-24.08-10.32-32.32-17.03-12.27-9.98-21.48-20.47-31.28-37.72,2.7,3.62,5.57,6.91,8.56,9.91l2.37,2.3c4.08,3.82,8.33,7.13,12.6,10.02l2.9,1.89c6.07,3.83,12.12,6.84,17.73,9.25,0,0,.06.02.16.06,3.06-9.11,7.04-21.43,7.04-21.43,3.32-11.62,6.29-24.67,8.03-38.78l.74-6.82c.93-10.17,1.18-20.83.43-31.86l-.56-6.52c-.85-8.34-2.29-16.87-4.45-25.55,5.53,14.31,9.59,27.2,12.47,39.45,1.59-1.47,3.23-3.16,4.8-5.09l.84-1.07c1.23-1.62,2.39-3.39,3.43-5.32l.59-1.16c.33-.67.65-1.37.95-2.08.45-1.17.86-2.37,1.26-3.59-2.33,12.1-5.33,21.45-9.41,30.04Z"/>
    <path class="cls-2" d="M175.75,183.7c-1.63-21.72-6.46-39.91-18.42-61.42.75,3.98,2.88,17.12,2.88,17.12,1.3,8.15,1.37,19.78,1.25,29.5-.02,1.79-.11,3.8-.25,5.94-.43,17.55-2.62,32.27-10.13,49.31,5.73,2,16.54,6.45,18.69,7.67,4.14-14.79,7.18-32.22,5.98-48.12Z"/>
  </g>
</svg>

