<svg width="114" height="83" viewBox="0 0 114 83" fill="none" xmlns="http://www.w3.org/2000/svg">
<path d="M49.1765 8.60993V1.88681e-08H49.0349C46.8399 -5.74989e-05 44.6471 0.131389 42.4706 0.393507L43.6785 8.93823C45.4737 8.71952 47.2826 8.60985 49.0935 8.60993H49.1765Z" fill="#B1B3B6"/>
<path d="M18.9745 44.6551L27.6647 45.8086C27.8919 43.9624 28.3607 42.1552 29.0589 40.435L20.9635 37.0216L12.6729 33.5186C12.025 35.1079 11.4817 36.7392 11.0464 38.4016L2.33756 36.0403C1.7973 38.09 1.3898 40.1735 1.11768 42.2773L10.0635 43.4686L18.9745 44.6551Z" fill="#B1B3B6"/>
<path d="M61.4392 2.23438L59.2354 10.6722C60.7922 11.1068 62.3198 11.6472 63.8083 12.2899L67.0589 4.22903C65.2304 3.43565 63.353 2.7693 61.4392 2.23438Z" fill="#B1B3B6"/>
<path d="M30.1765 71.9499C29.1779 71.1241 28.2299 70.2295 27.3383 69.2715L21.2354 75.8434C22.3888 77.0899 23.6167 78.2536 24.911 79.327L30.1765 71.9499Z" fill="#B1B3B6"/>
<path d="M19.3379 55.7361L27.9412 53.5009C27.4511 51.7207 27.1996 49.8862 27.193 48.043H18.2923C18.2953 49.3519 18.3867 50.6591 18.5661 51.9563L9.51907 53.1072C9.29388 51.4396 9.17956 49.7595 9.17683 48.0775L0 48.0683V48.0867C3.09569e-05 50.1456 0.135634 52.2024 0.405971 54.2444C0.680028 56.298 1.0916 58.3319 1.63805 60.333L10.5269 58.0311L19.3379 55.7361Z" fill="#B1B3B6"/>
<path d="M31.2942 61.7232C30.737 60.9935 30.2273 60.2286 29.7681 59.4333C29.3108 58.6436 28.9059 57.8245 28.556 56.9814L20.5169 60.3201C21.0144 61.514 21.589 62.6741 22.2369 63.793L14.5095 68.2731L6.70593 72.7902C8.7889 76.4007 11.3305 79.7247 14.2671 82.6788L20.6462 76.291C19.4553 75.0943 18.3432 73.8213 17.317 72.48L24.3956 67.0367L31.2942 61.7232Z" fill="#B1B3B6"/>
<path d="M54.7646 27.0836C55.5933 27.3113 56.4065 27.5949 57.1987 27.9324L60.3529 20.1983C59.228 19.7198 58.0736 19.3176 56.8971 18.9941L54.7646 27.0836Z" fill="#B1B3B6"/>
<path d="M44.9747 18.7817L43.7804 9.8598C42.0479 10.0841 40.3323 10.4184 38.6446 10.8607L36.2797 2.23438C34.2018 2.77487 32.1629 3.44904 30.1765 4.25246L33.688 12.5087L37.2233 20.8161C35.9853 21.3213 34.7828 21.9053 33.6235 22.5642L38.1358 30.1663C39.77 29.2344 41.5245 28.5189 43.3528 28.0388C44.2683 27.7949 45.1996 27.6113 46.1404 27.4895C47.1149 27.3588 48.0973 27.2927 49.081 27.2917H49.1765V18.5117H49.0857C47.7108 18.5129 46.3374 18.6031 44.9747 18.7817Z" fill="#B1B3B6"/>
<path d="M48.0639 17.6161C49.4946 17.6219 50.9234 17.709 52.3414 17.8767L53.6471 9.26877C51.7944 9.05289 49.9277 8.94256 48.0588 8.93848L48.0639 17.6161Z" fill="#B1B3B6"/>
<path d="M24.7516 17.1264L19.2689 10.0557C17.5997 11.3222 16.0165 12.6961 14.5294 14.1685L20.9025 20.4824L27.2826 26.8148C29.1485 24.9648 31.2482 23.3615 33.5294 22.0447L29.0073 14.2912C27.5273 15.1425 26.1056 16.0897 24.7516 17.1264Z" fill="#B1B3B6"/>
<path d="M31.6645 35.7527C32.2387 34.9527 32.8616 34.1933 33.5294 33.4793L27.2176 26.8145C26.2764 27.8177 25.398 28.8849 24.5883 30.0092L31.6645 35.7527Z" fill="#B1B3B6"/>
<path d="M10.2238 18.9941C8.93817 20.6869 7.76306 22.4629 6.70593 24.3108L14.5578 28.9148L22.4025 33.5188C23.0577 32.3578 23.7879 31.242 24.5883 30.1786L17.4049 24.5864L10.2238 18.9941Z" fill="#B1B3B6"/>
<path d="M72.9145 6.7041L68.334 14.4826L63.7059 22.3554C64.869 23.0236 65.9864 23.7669 67.0508 24.5806L72.674 17.3748L78.2353 10.2445C76.5414 8.95104 74.764 7.76839 72.9145 6.7041V6.7041Z" fill="#B1B3B6"/>
<path d="M68.1764 14.5639C66.7448 13.7065 65.2599 12.9469 63.7314 12.29L60.3529 20.5935C61.5289 21.0995 62.6711 21.6848 63.7722 22.3455L68.1764 14.5639Z" fill="white"/>
<path d="M52.7107 18.9941L51.4117 27.4079C52.4346 27.5245 53.4474 27.6997 54.4436 27.9324L57 19.7369C55.5908 19.4072 54.1579 19.1591 52.7107 18.9941Z" fill="white"/>
<path d="M49.0824 8.94072C47.2451 8.94065 45.4097 9.05018 43.5883 9.26861L44.8262 17.8767C46.2369 17.7031 47.6588 17.6146 49.0824 17.6117H49.1765V8.93848L49.0824 8.94072Z" fill="white"/>
<path d="M12.2941 33.5033L20.6231 36.8698C21.1218 35.6922 21.6997 34.5479 22.3529 33.4443L14.5444 29.0488C13.6952 30.4843 12.9434 31.9723 12.2941 33.5033H12.2941Z" fill="white"/>
<path d="M20.2389 75.9753L26.8235 69.8778C25.8676 68.9856 24.9751 68.0367 24.1516 67.0371L16.7646 72.2936C17.8356 73.5894 18.9961 74.8193 20.2389 75.9753Z" fill="white"/>
<path d="M22.3529 33.511L29.794 37.9879C30.2428 37.1641 30.7439 36.3724 31.2941 35.618L24.4776 30.167C23.6991 31.2317 22.9893 32.3488 22.3529 33.511Z" fill="white"/>
<path d="M17.8823 49.1075C17.8823 49.126 17.8823 49.142 17.8823 49.1605H26.6378V49.1128C26.6406 48.0678 26.7027 47.0242 26.8235 45.9884L18.14 44.6914C17.9718 46.1556 17.8857 47.6307 17.8823 49.1075H17.8823Z" fill="white"/>
<path d="M11.7118 63.6851L20.1177 60.4537C19.6136 59.3233 19.1896 58.1634 18.8485 56.9814L10.0588 59.1664C10.5034 60.7045 11.0556 62.2139 11.7118 63.6851Z" fill="white"/>
<path d="M30.1765 24.4905L35.6293 31.2839C36.384 30.7275 37.176 30.219 38 29.7617L33.5027 22.3457C32.346 22.9898 31.2348 23.7063 30.1765 24.4905H30.1765Z" fill="white"/>
<path fill-rule="evenodd" clip-rule="evenodd" d="M36.8823 48.6015C36.8823 42.2172 41.7551 36.8701 48.6503 36.8701C55.5431 36.8701 60.3529 42.1535 60.3529 48.5379V48.6015C60.3529 54.9859 55.4778 60.333 48.585 60.333C41.6921 60.333 36.8823 55.0496 36.8823 48.6676V48.6015ZM48.6503 56.6622C53.1055 56.6622 56.2149 53.0645 56.2149 48.6581L56.2056 48.6015C56.2056 44.1952 53.0426 40.5244 48.585 40.5244C44.1274 40.5244 41.018 44.1197 41.018 48.5285V48.5921C41.018 52.9985 44.195 56.6622 48.6503 56.6622Z" fill="white"/>
<rect x="63.7059" y="36.8701" width="4.47058" height="22.3456" fill="white"/>
<path d="M82.851 56.6763C78.6372 56.6763 75.5877 53.0456 75.5877 48.6063V48.5426C75.5877 44.1032 78.6372 40.5385 82.851 40.5385C85.3674 40.5385 87.2525 41.6725 89.014 43.3559L91.4984 40.4065C89.3914 38.3342 86.9391 36.8701 82.8831 36.8701C76.2145 36.8701 71.5294 42.1535 71.5294 48.6015V48.6676C71.5294 55.1816 76.3106 60.333 82.7252 60.333C86.843 60.333 89.3594 58.7769 91.6471 56.3133L89.165 53.7199C87.2845 55.5423 85.555 56.6763 82.851 56.6763Z" fill="white"/>
<path fill-rule="evenodd" clip-rule="evenodd" d="M113.302 43.9875C113.302 47.6645 111.097 49.8675 107.961 50.7589L114 59.2157H109.367L103.863 51.4298H98.9346V59.2157H95V36.8701H104.974C107.791 36.8701 109.998 37.7105 111.439 39.1033C112.629 40.3174 113.302 41.9771 113.302 43.9225V43.9875ZM98.9346 40.4543V47.9524H104.697C107.511 47.9524 109.304 46.4853 109.304 44.2196V44.1546C109.304 41.7613 107.577 40.4543 104.664 40.4543H98.9346Z" fill="white"/>
</svg>

